# xmcd
#
# Track frame offsets: 
#        150
#        20742
#        52182
#        75335
#        80232
#        101276
#        121915
#        147097
#        172072
#        201260
#        206592
#        220567
#        242022
#        257375
#        278225
#        290005
#        299721
#
# Disc length: 4449 seconds
#
# Revision: 1
# Processed by: cddbd v1.5.2PL0 Copyright (c) Steve Scherf et al.
# Submitted via: ExactAudioCopyFreeDBPlugin 1.0
#
DISCID=05115f11
DTITLE=Jim Hall and Pat Metheny - Jim Hall and Pat Metheny
DYEAR=1999
DGENRE=Jazz
TTITLE0=Lookin' Up - Jim Hall and Pat Metheny
TTITLE1=All The Things You Are - Jim Hall - Pat Metheny
TTITLE2=The Birds And The Bees - Jim Hall - Pat Metheny
TTITLE3=Improvisation No. 1 - Jim Hall - Pat Metheny
TTITLE4=Falling Grace - Jim Hall- Pat Metheny
TTITLE5=Ballad Z - Jim Hall- Pat Metheny
TTITLE6=Summertime - Jim Hall - Pat Metheny
TTITLE7=Farmer's Trust - Jim Hall - Pat Metheny
TTITLE8=Cold Spring - Jim Hall - Pat Metheny
TTITLE9=Improvisation No. 2 - Jim Hall - Pat Metheny
TTITLE10=Into The Dream - Jim Hall - Pat Metheny
TTITLE11=Don't Forget - Jim Hall - Pat Metheny
TTITLE12=Improvisation No. 3 - Jim Hall - Pat Metheny
TTITLE13=Waiting To Dance - Jim Hall - Pat Metheny
TTITLE14=Improvisation No. 4 - Jim Hall - Pat Metheny
TTITLE15=Improvisation No. 5 - Jim Hall - Pat Metheny
TTITLE16=All Across The City - Jim Hall - Pat Metheny
EXTD=YEAR: 1999
EXTT0=
EXTT1=
EXTT2=
EXTT3=
EXTT4=
EXTT5=
EXTT6=
EXTT7=
EXTT8=
EXTT9=
EXTT10=
EXTT11=
EXTT12=
EXTT13=
EXTT14=
EXTT15=
EXTT16=
PLAYORDER=
